# xmcd
#
# Track frame offsets: 
#        187
#        20205
#        43577
#        64220
#        82892
#        105095
#        128740
#        147760
#        172815
#        197752
#        231370
#
# Disc length: 3551 seconds
#
# Revision: 4
# Processed by: cddbd v1.5.2PL0 Copyright (c) Steve Scherf et al.
# Submitted via: ExactAudioCopy v0.99pb4
#
DISCID=8a0ddd0b
DTITLE=Ryuichi Sakamoto - Beauty
DYEAR=1989
DGENRE=New Age
TTITLE0=Calling from Tokyo
TTITLE1=Rose
TTITLE2=Asadoya Yunta
TTITLE3=Futique
TTITLE4=Amore
TTITLE5=We Love You
TTITLE6=Diabarum
TTITLE7=A Pile of Time
TTITLE8=Romance
TTITLE9=Chinsagu no Hana
TTITLE10=Adagio
EXTD=
EXTT0=
EXTT1=
EXTT2=
EXTT3=
EXTT4=
EXTT5=
EXTT6=
EXTT7=
EXTT8=
EXTT9=
EXTT10=
PLAYORDER=
